<svg width="89" height="84" viewBox="0 0 89 84" fill="none" xmlns="http://www.w3.org/2000/svg">
<g clip-path="url(#clip0_353_1504)">
<path d="M3.16635 50.6782C3.16635 50.6782 -2.91507 59.8808 1.79223 64.3533C6.49954 68.8257 11.0769 58.7305 11.0769 58.7305L14.41 53.0065L8.68142 42.8837C6.69323 45.3745 4.8518 47.977 3.16635 50.6782Z" fill="#EFEFEF"/>
<path d="M25.0224 74.8994H12.5067V77.0528C12.5067 78.6978 13.166 80.2755 14.3396 81.4387C15.5132 82.6019 17.1049 83.2554 18.7646 83.2554C20.4242 83.2554 22.016 82.6019 23.1895 81.4387C24.3631 80.2755 25.0224 78.6978 25.0224 77.0528V74.8994Z" fill="#EFEFEF"/>
<path d="M72.1049 74.8994H59.5428V77.016C59.5428 77.8354 59.7056 78.6467 60.0219 79.4037C60.3383 80.1607 60.802 80.8485 61.3865 81.4279C61.9711 82.0073 62.665 82.4669 63.4288 82.7804C64.1925 83.094 65.0111 83.2554 65.8377 83.2554C67.5024 83.248 69.0964 82.5875 70.271 81.4182C71.4455 80.2488 72.1049 78.666 72.1049 77.016V74.8994Z" fill="black"/>
<path d="M25.9138 14.0891C25.9138 14.0891 9.47074 1.2607 3.75141 8.30986C-2.82211 16.3989 18.4954 25.4082 18.4954 25.4082L25.9138 14.0891Z" fill="#FFCACA"/>
<path d="M8.67217 9.9018C7.25162 9.9018 6.81524 10.3987 6.64811 10.638C6.46733 10.8006 6.33529 11.0095 6.26649 11.2417C6.19769 11.4738 6.19481 11.7203 6.25816 11.954C6.68525 13.6656 10.3991 17.4111 17.1305 20.7608L20.8443 15.0552C17.084 12.5706 11.9589 9.9018 8.64432 9.9018H8.67217ZM8.64432 6.22078C15.7656 6.22078 25.8859 14.1166 25.8859 14.1166L18.4582 25.4357C18.4582 25.4357 -2.89649 16.4264 3.71417 8.33737C4.31142 7.6291 5.06735 7.06891 5.92169 6.70144C6.77603 6.33396 7.70515 6.16937 8.63502 6.22078H8.64432Z" fill="black"/>
<path d="M20.1294 10.1595C18.4588 7.78957 17.18 5.1708 16.3413 2.40179C16.2282 2.04615 16.2268 1.66485 16.3372 1.30839C16.4476 0.951935 16.6647 0.637121 16.9596 0.405647C17.2545 0.174174 17.6135 0.0369601 17.9888 0.0121627C18.3642 -0.0126347 18.7383 0.0761556 19.0616 0.266786C21.9579 1.90589 24.6159 3.92748 26.9629 6.27606C31.1131 10.7393 20.1294 10.1595 20.1294 10.1595Z" fill="#FFC145"/>
<path d="M23.6762 81.0285C26.3445 81.7046 29.0555 82.2027 31.791 82.5193C35.9744 83.0214 40.1856 83.2612 44.3995 83.2371C48.0613 83.253 51.7214 83.0779 55.3647 82.7125C82.4943 79.9518 81.5752 66.8381 81.5752 66.8381C81.5752 66.8381 81.5752 55.3993 81.2781 50.4391C80.8136 41.5242 79.571 32.6658 77.5642 23.9634C76.4813 19.6072 74.2576 15.6114 71.1178 12.3797C67.9779 9.14805 64.0331 6.79499 59.682 5.55827C53.3533 3.75428 46.75 3.08732 40.1843 3.58892C36.4982 3.86737 32.8497 4.5117 29.2934 5.51225H29.2006C24.8503 6.73452 20.9026 9.07317 17.7562 12.2919C14.6098 15.5106 12.3763 19.4955 11.2812 23.8437C10.5612 27.1406 10.0219 30.4738 9.66571 33.8285C8.23588 45.1845 7.11244 61.0773 7.11244 66.8749C7.11244 66.8473 6.49966 76.556 23.6762 81.0285Z" fill="white"/>
<path d="M31.791 82.5286C35.9744 83.0307 40.1856 83.2705 44.3995 83.2464C48.0613 83.2623 51.7214 83.0872 55.3647 82.7218C82.4943 79.961 81.5752 66.8474 81.5752 66.8474C81.5752 66.8474 81.5752 55.4086 81.2781 50.4484C81.2781 50.4484 60.9354 48.0466 56.7388 62.9915C56.3948 64.2818 55.8764 65.52 55.1975 66.6725C49.5803 76.0683 36.3683 68.5591 31.8838 82.1973C31.8439 82.305 31.8128 82.4158 31.791 82.5286Z" fill="black"/>
<path d="M9.66573 33.8288C18.1426 29.8533 17.4277 17.6783 27.9007 17.6783C40.4071 17.6783 40.2122 3.62595 40.2122 3.62595C36.5261 3.90439 32.8775 4.54874 29.3213 5.54929H29.2284C24.8782 6.77157 20.9304 9.11021 17.7841 12.3289C14.6377 15.5477 12.4042 19.5325 11.3091 23.8808C10.581 27.165 10.0324 30.4859 9.66573 33.8288Z" fill="black"/>
<path d="M22.274 68.4761V75.9854C22.2722 77.7612 22.7568 79.5042 23.676 81.0284C30.4618 82.6299 37.4251 83.372 44.3993 83.237C48.0611 83.2529 51.7212 83.0778 55.3644 82.7125V68.4761C55.3658 67.8741 55.3099 67.2733 55.1973 66.6816C54.7672 64.3988 53.547 62.3362 51.747 60.8494C49.947 59.3627 47.6801 58.545 45.337 58.5374H32.3386C29.675 58.5349 27.1192 59.5801 25.2323 61.4434C23.3453 63.3068 22.2814 65.8361 22.274 68.4761Z" fill="#FFCACA"/>
<path d="M22.2647 34.0309C19.988 34.0309 18.1423 32.2016 18.1423 29.945C18.1423 27.6884 19.988 25.859 22.2647 25.859C24.5414 25.859 26.3871 27.6884 26.3871 29.945C26.3871 32.2016 24.5414 34.0309 22.2647 34.0309Z" fill="black"/>
<path d="M55.3645 34.0309C53.0877 34.0309 51.2421 32.2016 51.2421 29.945C51.2421 27.6884 53.0877 25.859 55.3645 25.859C57.6412 25.859 59.4868 27.6884 59.4868 29.945C59.4868 32.2016 57.6412 34.0309 55.3645 34.0309Z" fill="black"/>
<path d="M25.0224 40.6477C25.0224 35.7059 29.3304 29.9451 38.8379 29.9451C48.3453 29.9451 52.4863 35.7059 52.4863 40.6477C52.4863 45.5895 48.336 47.8349 38.8379 47.8349C29.3397 47.8349 25.0224 45.5803 25.0224 40.6477Z" fill="#FFCACA"/>
<path d="M41.5676 40.3347C40.7831 40.3347 40.1471 39.4818 40.1471 38.4297C40.1471 37.3777 40.7831 36.5248 41.5676 36.5248C42.3522 36.5248 42.9882 37.3777 42.9882 38.4297C42.9882 39.4818 42.3522 40.3347 41.5676 40.3347Z" fill="black"/>
<path d="M33.2949 40.3347C32.5104 40.3347 31.8744 39.4818 31.8744 38.4297C31.8744 37.3777 32.5104 36.5248 33.2949 36.5248C34.0795 36.5248 34.7155 37.3777 34.7155 38.4297C34.7155 39.4818 34.0795 40.3347 33.2949 40.3347Z" fill="black"/>
<path d="M67.5554 11.5123C69.6384 8.74041 71.2792 5.66772 72.4205 2.40179C72.5336 2.04615 72.535 1.66485 72.4246 1.30839C72.3142 0.951935 72.0971 0.637121 71.8022 0.405647C71.5072 0.174174 71.1483 0.0369601 70.7729 0.0121627C70.3976 -0.0126347 70.0235 0.0761556 69.7001 0.266786C67.249 1.71159 65.2528 2.66866 62.9966 5.08893C58.8464 9.56138 67.5554 11.5123 67.5554 11.5123Z" fill="#FFC145"/>
<path d="M66.7848 17.3282C66.2786 16.7 65.905 15.9773 65.6861 15.2032C65.4672 14.429 65.4075 13.6192 65.5106 12.8217C65.6136 12.0242 65.8773 11.2554 66.286 10.561C66.6947 9.8665 67.2401 9.26052 67.8896 8.77902C72.8755 5.098 80.5074 0.735991 84.602 4.85874C89.5414 9.85573 81.928 16.4908 76.4315 20.2822C75.1684 21.156 73.6171 21.5205 72.0927 21.3017C70.5683 21.083 69.185 20.2973 68.2239 19.1043L66.7848 17.3282Z" fill="#FFCACA"/>
<path d="M80.331 6.86511C78.0098 6.86511 74.2867 8.6412 70.1179 11.7241C69.8665 11.91 69.6556 12.1444 69.4978 12.4131C69.34 12.6818 69.2386 12.9793 69.1996 13.2878C69.1606 13.5963 69.1848 13.9094 69.2708 14.2084C69.3568 14.5074 69.5028 14.7861 69.7001 15.0278L71.1206 16.8039C71.3426 17.0801 71.6252 17.3025 71.947 17.454C72.2688 17.6055 72.6213 17.6822 72.9775 17.6781C73.4558 17.6811 73.9231 17.5363 74.3145 17.264C80.1174 13.2609 82.3365 10.1688 82.485 8.5952C82.485 8.36513 82.5407 8.02464 81.9558 7.43568C81.7494 7.2285 81.4989 7.06971 81.2225 6.97099C80.9462 6.87226 80.6511 6.83608 80.3588 6.86511H80.331ZM80.3588 3.18409C81.1459 3.15698 81.9301 3.29182 82.662 3.58008C83.3939 3.86835 84.0576 4.3038 84.6112 4.85896C89.5506 9.85595 81.9372 16.491 76.4407 20.2824C75.1769 21.1541 73.6262 21.5173 72.1024 21.2986C70.5787 21.0799 69.1956 20.2956 68.2331 19.1045L66.8126 17.3284C66.3064 16.7002 65.9328 15.9775 65.7139 15.2034C65.495 14.4292 65.4353 13.6194 65.5384 12.8219C65.6414 12.0245 65.9051 11.2557 66.3138 10.5612C66.7225 9.86672 67.2678 9.26074 67.9174 8.77924C71.4642 6.14731 76.3572 3.18409 80.3588 3.18409Z" fill="white"/>
<path d="M85.9296 50.8903C85.9296 50.8903 91.7325 60.2217 86.858 64.6021C81.9836 68.9825 77.7406 58.694 77.7406 58.694L72.9404 50.2737L80.6095 42.9117C82.5376 45.4666 84.314 48.1307 85.9296 50.8903Z" fill="white"/>
<path d="M34.7154 75.967C34.8376 75.9677 34.9587 75.9444 35.0719 75.8986C35.185 75.8528 35.2879 75.7854 35.3746 75.7001L39.5063 71.5589C39.6584 71.3829 39.7379 71.1564 39.7289 70.9248C39.7198 70.6932 39.623 70.4735 39.4576 70.3096C39.2923 70.1457 39.0706 70.0497 38.8369 70.0408C38.6032 70.0318 38.3748 70.1106 38.1972 70.2614L34.0655 74.3565C33.9785 74.4421 33.9094 74.5438 33.8623 74.656C33.8151 74.7681 33.7909 74.8884 33.7909 75.0099C33.7909 75.1314 33.8151 75.2517 33.8623 75.3638C33.9094 75.4759 33.9785 75.5777 34.0655 75.6633C34.148 75.7541 34.248 75.8278 34.3596 75.88C34.4712 75.9321 34.5922 75.9617 34.7154 75.967Z" fill="#FF8D8D"/>
<path d="M38.8565 75.9669C39.0401 75.9662 39.2194 75.9115 39.3716 75.8097C39.5239 75.708 39.6423 75.5638 39.7118 75.3953C39.7814 75.2269 39.799 75.0418 39.7624 74.8634C39.7259 74.6851 39.6368 74.5215 39.5064 74.3933L35.3747 70.2982C35.2008 70.1268 34.9654 70.0306 34.7202 70.0306C34.4749 70.0306 34.2395 70.1268 34.0656 70.2982C33.8927 70.4706 33.7956 70.7038 33.7956 70.9469C33.7956 71.1901 33.8927 71.4233 34.0656 71.5957L38.1972 75.7001C38.284 75.7854 38.3869 75.8528 38.5 75.8986C38.6131 75.9444 38.7343 75.9676 38.8565 75.9669Z" fill="#FF8D8D"/>
<path d="M60.8054 34.0312H62.7459C65.0329 34.0312 66.8869 35.8667 66.8869 38.1309C66.8869 40.3951 65.0329 42.2306 62.7459 42.2306H60.8054C58.5185 42.2306 56.6645 40.3951 56.6645 38.1309C56.6645 35.8667 58.5185 34.0312 60.8054 34.0312Z" fill="#FFD2D2"/>
<path d="M14.9671 34.0312H16.9076C19.1946 34.0312 21.0486 35.8667 21.0486 38.1309C21.0486 40.3951 19.1946 42.2306 16.9076 42.2306H14.9671C12.6801 42.2306 10.8262 40.3951 10.8262 38.1309C10.8262 35.8667 12.6801 34.0312 14.9671 34.0312Z" fill="#FFD2D2"/>
</g>
<defs>
<clipPath id="clip0_353_1504">
<rect width="88.8167" height="83.2464" fill="white" transform="matrix(-1 0 0 1 88.8168 0)"/>
</clipPath>
</defs>
</svg>
