<svg width="98" height="98" viewBox="0 0 98 98" fill="none" xmlns="http://www.w3.org/2000/svg">
<g clip-path="url(#clip0_353_1473)">
<path d="M3.45578 61.9856C3.45578 61.9856 -3.14257 72.0156 1.96487 76.8902C7.07231 81.7648 12.0387 70.7618 12.0387 70.7618L15.6653 64.5232L9.44973 53.4901C7.28909 56.2047 5.28776 59.0412 3.45578 61.9856Z" fill="#EFD565"/>
<path d="M63.8283 92.3166H82.616C84.0515 92.3166 85.2151 93.4729 85.2151 94.8993C85.2151 96.3257 84.0515 97.4821 82.616 97.4821H63.8283C62.3929 97.4821 61.2293 96.3257 61.2293 94.8993C61.2293 93.4729 62.3929 92.3166 63.8283 92.3166Z" fill="#FFBB4D"/>
<path d="M10.4369 92.3166H28.6907C30.1261 92.3166 31.2897 93.4729 31.2897 94.8993C31.2897 96.3257 30.1261 97.4821 28.6907 97.4821H10.4369C9.00145 97.4821 7.83782 96.3257 7.83782 94.8993C7.83782 93.4729 9.00145 92.3166 10.4369 92.3166Z" fill="#FFBB4D"/>
<path d="M64.7451 12.8185C53.9836 9.75454 42.5751 9.75454 31.8137 12.8185H31.7129C26.9928 14.1506 22.7096 16.6996 19.2958 20.2077C15.8819 23.7159 13.4585 28.059 12.2704 32.7983C10.0138 41.8253 7.73714 70.9926 7.73714 79.6285C7.73714 79.6285 6.60885 97.502 48.1937 97.502C89.7785 97.502 88.4891 79.6285 88.4891 79.6285C88.4891 79.6285 88.4891 67.1611 88.1668 61.7549C87.6573 52.0389 86.3092 42.3845 84.1372 32.8986C82.9661 28.1489 80.5546 23.7918 77.1473 20.269C73.74 16.7462 69.4579 14.1828 64.735 12.8385L64.7451 12.8185Z" fill="#F2F2F2"/>
<path d="M64.7451 12.8185C53.9836 9.75454 42.5751 9.75454 31.8137 12.8185H31.7129C26.9928 14.1506 22.7096 16.6996 19.2958 20.2077C15.8819 23.7159 13.4585 28.059 12.2704 32.7983C10.0138 41.8253 7.73714 70.9926 7.73714 79.6285C7.73714 79.6285 6.60885 97.502 48.1937 97.502C89.7785 97.502 88.4891 79.6285 88.4891 79.6285C88.4891 79.6285 88.4891 67.1611 88.1668 61.7549C87.6573 52.0389 86.3092 42.3845 84.1372 32.8986C82.9661 28.1489 80.5546 23.7918 77.1473 20.269C73.74 16.7462 69.4579 14.1828 64.735 12.8385L64.7451 12.8185Z" fill="#FFE36C"/>
<path d="M24.1776 43.8414C21.7073 43.8414 19.7048 41.8476 19.7048 39.3881C19.7048 36.9286 21.7073 34.9347 24.1776 34.9347C26.6479 34.9347 28.6504 36.9286 28.6504 39.3881C28.6504 41.8476 26.6479 43.8414 24.1776 43.8414Z" fill="black"/>
<path d="M60.091 43.8414C57.6207 43.8414 55.6182 41.8476 55.6182 39.3881C55.6182 36.9286 57.6207 34.9347 60.091 34.9347C62.5612 34.9347 64.5638 36.9286 64.5638 39.3881C64.5638 41.8476 62.5612 43.8414 60.091 43.8414Z" fill="black"/>
<path d="M93.7778 64.1118C93.7778 64.1118 100.366 74.1418 95.2486 79.0264C90.1311 83.911 85.1747 72.878 85.1747 72.878L81.5683 66.6293L87.804 55.5963C89.959 58.3174 91.9536 61.1606 93.7778 64.1118Z" fill="#FFE36C"/>
<path d="M37.6867 89.5482C37.8193 89.549 37.9507 89.5237 38.0735 89.4738C38.1962 89.4238 38.3079 89.3503 38.402 89.2574L42.8849 84.7439C43.0499 84.552 43.1361 84.3052 43.1263 84.0527C43.1165 83.8003 43.0115 83.5608 42.8321 83.3822C42.6526 83.2036 42.4121 83.0989 42.1586 83.0892C41.9051 83.0794 41.6571 83.1653 41.4644 83.3296L36.9715 87.793C36.8771 87.8862 36.8021 87.9971 36.751 88.1194C36.6998 88.2416 36.6735 88.3727 36.6735 88.5051C36.6735 88.6375 36.6998 88.7686 36.751 88.8908C36.8021 89.0131 36.8771 89.124 36.9715 89.2172C37.0623 89.3175 37.1724 89.3985 37.2953 89.4553C37.4182 89.5122 37.5513 89.5438 37.6867 89.5482Z" fill="#FFBB4D"/>
<path d="M42.1696 89.5482C42.3697 89.5493 42.5656 89.4911 42.7323 89.381C42.8991 89.2708 43.0291 89.1138 43.1059 88.9298C43.1826 88.7458 43.2025 88.5432 43.1632 88.3479C43.1238 88.1525 43.027 87.9733 42.8849 87.833L38.402 83.3697C38.3084 83.2757 38.1969 83.201 38.0742 83.1501C37.9514 83.0992 37.8197 83.073 37.6868 83.073C37.5538 83.073 37.4221 83.0992 37.2993 83.1501C37.1766 83.201 37.0652 83.2757 36.9715 83.3697C36.7839 83.5576 36.6786 83.8118 36.6786 84.0768C36.6786 84.3417 36.7839 84.596 36.9715 84.7839L41.4644 89.2573C41.6521 89.4426 41.9053 89.5471 42.1696 89.5482Z" fill="#FFBB4D"/>
<path d="M66.2864 58.8059C62.4586 58.8059 59.3555 55.7164 59.3555 51.9053C59.3555 48.0942 62.4586 45.0046 66.2864 45.0046C70.1141 45.0046 73.2172 48.0942 73.2172 51.9053C73.2172 55.7164 70.1141 58.8059 66.2864 58.8059Z" fill="#FFA052"/>
<path d="M18.2845 58.8059C14.4567 58.8059 11.3537 55.7164 11.3537 51.9053C11.3537 48.0942 14.4567 45.0046 18.2845 45.0046C22.1122 45.0046 25.2153 48.0942 25.2153 51.9053C25.2153 55.7164 22.1122 58.8059 18.2845 58.8059Z" fill="#FFA052"/>
<path d="M35.41 51.795H46.4913C48.0089 51.7897 49.4627 51.1864 50.5349 50.117C51.6071 49.0476 52.2105 47.599 52.2132 46.088C52.2132 42.9586 44.0937 40.8623 40.9406 40.8623C37.7975 40.8623 29.678 42.9586 29.678 46.088C29.6807 47.6008 30.2854 49.0509 31.3598 50.1206C32.4341 51.1903 33.8906 51.7924 35.41 51.795Z" fill="#FFBB4D"/>
<path d="M49.5538 10.5215C49.5538 10.5215 49.1307 4.2929 45.2522 0.210684C45.1598 0.114808 45.0421 0.0470018 44.9125 0.015137C44.783 -0.0167277 44.6469 -0.0113438 44.5204 0.0306712C44.3938 0.0726862 44.2817 0.149598 44.1973 0.252481C44.1129 0.355364 44.0595 0.47999 44.0433 0.611879C43.6319 3.53296 42.7295 6.36422 41.3738 8.98695C40.9569 9.63436 40.4061 10.1858 39.7581 10.6043C39.1101 11.0229 38.3799 11.299 37.6162 11.4142" fill="#FFE36C"/>
<path d="M42.4415 10.7924C45.5054 8.62537 48.0651 5.82717 49.9465 2.58788C50.0104 2.46949 50.1071 2.37183 50.2251 2.30652C50.3431 2.24121 50.4774 2.21099 50.6121 2.21944C50.7468 2.22789 50.8762 2.27466 50.985 2.35419C51.0939 2.43373 51.1774 2.54268 51.2259 2.66812C51.7018 4.29921 51.9626 5.98504 52.0016 7.68313C52.0485 8.48875 52.3758 9.25293 52.9274 9.8442C53.479 10.4355 54.2203 10.8169 55.0237 10.9228" fill="#FFE36C"/>
</g>
<defs>
<clipPath id="clip0_353_1473">
<rect width="97.1723" height="97.4818" fill="white" transform="matrix(-1 0 0 1 97.193 0)"/>
</clipPath>
</defs>
</svg>
