<svg width="92" height="86" viewBox="0 0 92 86" fill="none" xmlns="http://www.w3.org/2000/svg">
<g clip-path="url(#clip0_353_1489)">
<path d="M29.0642 76.5011H15.4692V78.7664C15.4692 80.5688 16.1853 82.2974 17.4601 83.5719C18.7349 84.8463 20.4639 85.5623 22.2667 85.5623C24.0695 85.5623 25.7985 84.8463 27.0733 83.5719C28.348 82.2974 29.0642 80.5688 29.0642 78.7664V76.5011Z" fill="#4B9B3A"/>
<path d="M3.54113 55.5446C3.54113 55.5446 -2.44787 65.8132 2.85239 70.4337C8.15266 75.0541 12.5047 63.8074 12.5047 63.8074L15.7487 57.4107L9.01109 46.7528C7.01676 49.5735 5.19027 52.5092 3.54113 55.5446Z" fill="#4B9B3A"/>
<path d="M83.5841 46.8428C83.5841 46.8428 95.5621 88.676 42.1702 85.5525C-3.2065 82.898 9.02105 46.8428 9.02105 46.8428C6.86717 44.7993 5.23083 42.2726 4.24738 39.4715C3.26392 36.6704 2.96158 33.6754 3.36539 30.7344C3.7692 27.7933 4.86755 24.9906 6.56959 22.558C8.27163 20.1255 10.5285 18.133 13.1535 16.7453C12.2653 13.5366 12.6206 10.111 14.1484 7.15272C15.6761 4.19444 18.2638 1.92124 21.3948 0.787112C24.5257 -0.347014 27.9694 -0.258576 31.0379 1.03477C34.1065 2.32811 36.5741 4.73115 37.9479 7.76395H51.7027C52.9589 5.01616 55.1178 2.78087 57.8205 1.42956C60.5233 0.0782535 63.6073 -0.307695 66.5598 0.33584C69.5124 0.979374 72.1558 2.61365 74.0508 4.96707C75.9457 7.32048 76.978 10.2513 76.9763 13.2725C76.9678 14.0599 76.8876 14.8448 76.7367 15.6176C79.7798 16.6597 82.5027 18.4687 84.6424 20.8698C86.7821 23.271 88.2663 26.1833 88.9516 29.3253C89.637 32.4673 89.5003 35.7329 88.5549 38.8068C87.6094 41.8806 85.887 44.6587 83.5542 46.8728L83.5841 46.8428Z" fill="#49B236"/>
<path d="M77.0462 76.5011H64.3395V79.2055C64.3395 80.8914 65.0094 82.5083 66.2018 83.7005C67.3943 84.8926 69.0115 85.5623 70.6979 85.5623C72.3825 85.5597 73.9972 84.8888 75.1874 83.6969C76.3777 82.5051 77.0462 80.8897 77.0462 79.2055V76.5011Z" fill="#49B236"/>
<path d="M21.2985 60.764V80.5031C26.2893 83.1576 33.0969 85.0237 42.1702 85.5526C52.1519 86.1414 59.8477 85.1534 65.7668 83.1676V60.764C65.7589 57.9081 64.6207 55.1713 62.6007 53.1518C60.5807 51.1324 57.8433 49.9943 54.9867 49.9864H32.0288C29.1808 50.0074 26.4562 51.1513 24.447 53.1693C22.4378 55.1874 21.3063 57.9167 21.2985 60.764Z" fill="#9CD43D"/>
<path d="M25.7904 23.2918C23.3427 23.2918 21.3585 21.3081 21.3585 18.861C21.3585 16.4139 23.3427 14.4302 25.7904 14.4302C28.238 14.4302 30.2222 16.4139 30.2222 18.861C30.2222 21.3081 28.238 23.2918 25.7904 23.2918Z" fill="black"/>
<path d="M61.335 23.2918C58.8873 23.2918 56.9031 21.3081 56.9031 18.861C56.9031 16.4139 58.8873 14.4302 61.335 14.4302C63.7826 14.4302 65.7668 16.4139 65.7668 18.861C65.7668 21.3081 63.7826 23.2918 61.335 23.2918Z" fill="black"/>
<path d="M88.565 55.9138C88.565 55.9138 94.0849 66.452 88.565 70.8229C83.0452 75.1938 79.2322 63.7575 79.2322 63.7575L76.2377 57.2211L83.4644 46.8826C85.3367 49.7926 87.0398 52.808 88.565 55.9138Z" fill="#49B236"/>
<path d="M47.6503 23.3116H37.2893C36.7872 23.3111 36.2931 23.4369 35.8523 23.6773C35.4115 23.9177 35.0383 24.265 34.767 24.6874C34.4956 25.1097 34.3348 25.5935 34.2994 26.0942C34.264 26.5949 34.3551 27.0965 34.5643 27.5528C35.6423 29.858 37.8782 32.2331 42.4698 32.2331C47.0613 32.2331 49.2873 29.858 50.3753 27.5528C50.5845 27.0965 50.6755 26.5949 50.6401 26.0942C50.6047 25.5935 50.4439 25.1097 50.1726 24.6874C49.9012 24.265 49.528 23.9177 49.0872 23.6773C48.6465 23.4369 48.1523 23.3111 47.6503 23.3116Z" fill="white"/>
<path d="M14.9802 38.1209C10.6637 38.1209 7.16453 34.8012 7.16453 30.7063C7.16453 26.6113 10.6637 23.2917 14.9802 23.2917C19.2966 23.2917 22.7958 26.6113 22.7958 30.7063C22.7958 34.8012 19.2966 38.1209 14.9802 38.1209Z" fill="#9CD43D"/>
<path d="M69.9592 38.1209C65.6427 38.1209 62.1435 34.8012 62.1435 30.7063C62.1435 26.6113 65.6427 23.2917 69.9592 23.2917C74.2757 23.2917 77.7748 26.6113 77.7748 30.7063C77.7748 34.8012 74.2757 38.1209 69.9592 38.1209Z" fill="#9CD43D"/>
<path d="M39.1158 77.6588C39.3776 77.6577 39.6285 77.5537 39.8144 77.3694L44.2663 72.8787C44.4298 72.6878 44.5152 72.4422 44.5055 72.191C44.4958 71.9399 44.3917 71.7016 44.2139 71.5239C44.0362 71.3462 43.7979 71.2421 43.5467 71.2324C43.2955 71.2227 43.0498 71.3081 42.8589 71.4716L38.407 75.9124C38.3135 76.0052 38.2392 76.1155 38.1886 76.2371C38.1379 76.3587 38.1118 76.4892 38.1118 76.6209C38.1118 76.7526 38.1379 76.8831 38.1886 77.0047C38.2392 77.1263 38.3135 77.2367 38.407 77.3294C38.4969 77.4292 38.606 77.5097 38.7278 77.5663C38.8496 77.6229 38.9815 77.6544 39.1158 77.6588Z" fill="#49B236"/>
<path d="M43.5577 77.6593C43.6891 77.6601 43.8193 77.6349 43.9409 77.5852C44.0625 77.5356 44.1731 77.4624 44.2664 77.3699C44.36 77.2772 44.4342 77.1668 44.4849 77.0452C44.5356 76.9236 44.5616 76.7931 44.5616 76.6614C44.5616 76.5297 44.5356 76.3992 44.4849 76.2776C44.4342 76.156 44.36 76.0456 44.2664 75.9529L39.8146 71.5121C39.6236 71.3486 39.378 71.2632 39.1268 71.2729C38.8756 71.2826 38.6373 71.3867 38.4595 71.5644C38.2817 71.7421 38.1776 71.9804 38.1679 72.2315C38.1582 72.4827 38.2436 72.7283 38.4071 72.9192L42.859 77.3699C43.0449 77.5543 43.2958 77.6582 43.5577 77.6593Z" fill="#49B236"/>
</g>
<defs>
<clipPath id="clip0_353_1489">
<rect width="90.3641" height="85.7221" fill="white" transform="matrix(-1 0 0 1 91.0206 0)"/>
</clipPath>
</defs>
</svg>
