<svg width="94" height="102" viewBox="0 0 94 102" fill="none" xmlns="http://www.w3.org/2000/svg">
<g clip-path="url(#clip0_353_1452)">
<path d="M4.09852 67.4841C4.09852 67.4841 -2.20564 77.0973 2.67408 81.7692C7.5538 86.4412 12.2988 75.8956 12.2988 75.8956L15.7637 69.9163L9.82522 59.3418C7.76091 61.9435 5.84882 64.6621 4.09852 67.4841Z" fill="#EFEFEF"/>
<path d="M79.6331 92.9392H66.4473V94.9195C66.4473 96.666 67.1419 98.3409 68.3783 99.5758C69.6147 100.811 71.2916 101.505 73.0402 101.505C74.7888 101.505 76.4657 100.811 77.7021 99.5758C78.9385 98.3409 79.6331 96.666 79.6331 94.9195V92.9392Z" fill="white"/>
<path d="M25.4557 92.9392H12.5778V95.0734C12.5778 96.779 13.2562 98.4148 14.4638 99.6209C15.6713 100.827 17.3091 101.505 19.0168 101.505C20.7245 101.505 22.3622 100.827 23.5698 99.6209C24.7773 98.4148 25.4557 96.779 25.4557 95.0734V92.9392Z" fill="#EFEFEF"/>
<path d="M62.6553 20.3604C52.3704 17.4235 41.4674 17.4235 31.1826 20.3604H31.0959C26.585 21.6345 22.4912 24.0766 19.2291 27.4394C15.9671 30.8022 13.6527 34.9662 12.5203 39.5097C10.3547 48.1615 8.18915 76.1165 8.18915 84.3934C8.18915 84.3934 7.11119 101.524 46.8419 101.524C86.5727 101.524 85.3407 84.3934 85.3407 84.3934C85.3407 84.3934 85.3407 72.4443 85.0231 67.2628C84.5416 57.9501 83.2535 48.6965 81.1732 39.6059C80.0507 35.0553 77.7455 30.8812 74.4907 27.5054C71.2358 24.1296 67.1466 21.6715 62.6361 20.3796L62.6553 20.3604Z" fill="#F2F2F2"/>
<path d="M62.6553 20.3604C52.3704 17.4235 41.4674 17.4235 31.1826 20.3604H31.0959C26.585 21.6345 22.4912 24.0766 19.2291 27.4394C15.9671 30.8022 13.6527 34.9662 12.5203 39.5097C10.3547 48.1615 8.18915 76.1165 8.18915 84.3934C8.18915 84.3934 7.11119 101.524 46.8419 101.524C86.5727 101.524 85.3407 84.3934 85.3407 84.3934C85.3407 84.3934 85.3407 72.4443 85.0231 67.2628C84.5416 57.9501 83.2535 48.6965 81.1732 39.6059C80.0507 35.0553 77.7455 30.8812 74.4907 27.5054C71.2358 24.1296 67.1466 21.6715 62.6361 20.3796L62.6553 20.3604Z" fill="white"/>
<path d="M61.7505 52.0168H66.072C68.4428 52.0168 70.3646 53.9364 70.3646 56.3043V56.3139C70.3646 58.6818 68.4428 60.6013 66.072 60.6013H61.7505C59.3798 60.6013 57.4579 58.6818 57.4579 56.3139V56.3043C57.4579 53.9364 59.3798 52.0168 61.7505 52.0168Z" fill="#FFD2D2"/>
<path d="M16.245 52.0168H20.5665C22.9372 52.0168 24.8591 53.9364 24.8591 56.3043V56.3139C24.8591 58.6818 22.9372 60.6013 20.5665 60.6013H16.245C13.8742 60.6013 11.9524 58.6818 11.9524 56.3139V56.3043C11.9524 53.9364 13.8742 52.0168 16.245 52.0168Z" fill="#FFD2D2"/>
<path d="M23.8966 50.0941C21.5364 50.0941 19.6232 48.1831 19.6232 45.8258C19.6232 43.4686 21.5364 41.5576 23.8966 41.5576C26.2567 41.5576 28.1699 43.4686 28.1699 45.8258C28.1699 48.1831 26.2567 50.0941 23.8966 50.0941Z" fill="black"/>
<path d="M58.2086 50.0941C55.8485 50.0941 53.9353 48.1831 53.9353 45.8258C53.9353 43.4686 55.8485 41.5576 58.2086 41.5576C60.5687 41.5576 62.482 43.4686 62.482 45.8258C62.482 48.1831 60.5687 50.0941 58.2086 50.0941Z" fill="black"/>
<path d="M55.2827 21.6486C54.6173 21.4715 54.0458 21.0449 53.6872 20.4576C53.3287 19.8703 53.2107 19.1675 53.3578 18.4955C54.5224 13.1891 57.8814 1.49953 64.5898 2.46085C72.5109 3.59519 68.4397 16.669 66.4378 21.9755C66.1921 22.5771 65.7417 23.0728 65.1659 23.3753C64.5902 23.6778 63.926 23.7676 63.2905 23.6289L55.2827 21.6486Z" fill="#FFD2D2"/>
<path d="M63.8583 26.0996C64.8991 26.1016 65.9161 25.7885 66.7752 25.2016C67.6343 24.6147 68.2951 23.7815 68.6706 22.8119C70.9805 16.6788 73.1461 8.39228 70.3164 3.58572C69.7462 2.62609 68.9609 1.81157 68.0224 1.2061C67.0839 0.600634 66.0176 0.220711 64.9074 0.0961702C58.6706 -0.807462 53.7234 5.55642 50.99 17.9862C50.7004 19.2754 50.9296 20.6267 51.6281 21.7488C52.3267 22.8709 53.4387 23.6739 54.7244 23.9847L62.6937 25.965C63.0752 26.0556 63.4661 26.1008 63.8583 26.0996ZM63.8583 4.8162C63.9896 4.80667 64.1215 4.80667 64.2529 4.8162C64.6446 4.84221 65.0242 4.96244 65.3594 5.16666C65.6946 5.37087 65.9754 5.653 66.1778 5.989C67.5637 8.3346 66.7938 14.1217 64.1662 21.0912C64.1315 21.1438 64.0844 21.1871 64.0291 21.2173C63.9737 21.2475 63.9117 21.2636 63.8486 21.2642L55.889 19.2839C55.8225 19.2679 55.7646 19.2271 55.7271 19.17C55.6896 19.1129 55.6752 19.0436 55.6869 18.9763C57.1306 12.3913 60.1239 4.8162 63.8198 4.8162H63.8583Z" fill="white"/>
<path d="M37.1209 22.2158C37.789 22.0429 38.3635 21.6172 38.7228 21.0286C39.0821 20.4401 39.1979 19.735 39.0458 19.0627C37.8812 13.7562 34.5319 2.0763 27.8138 3.028C19.9023 4.16235 23.9639 17.2362 25.9659 22.5426C26.1966 23.1554 26.6446 23.6623 27.2247 23.9671C27.8049 24.2719 28.4769 24.3534 29.1132 24.1961L37.1209 22.2158Z" fill="#FFD2D2"/>
<path d="M28.5068 26.6763C28.9222 26.6767 29.3361 26.625 29.7387 26.5225L37.6983 24.5422C38.9859 24.2334 40.1002 23.4312 40.8007 22.3089C41.5012 21.1866 41.7316 19.8342 41.4424 18.5436C38.6993 6.11382 33.7426 -0.240453 27.5154 0.653567C26.406 0.776639 25.3404 1.15605 24.4033 1.76174C23.4661 2.36742 22.683 3.18275 22.116 4.14313C19.2767 8.94969 21.4422 17.2458 23.7522 23.3694C24.1142 24.338 24.7631 25.1733 25.6126 25.7642C26.4621 26.355 27.4716 26.6732 28.5068 26.6763ZM28.5934 5.38323C32.2989 5.38323 35.2825 12.9295 36.7455 19.5818C36.7572 19.6466 36.7439 19.7134 36.7082 19.7688C36.6724 19.8241 36.6169 19.8638 36.553 19.8798L28.5837 21.8601C28.52 21.8763 28.4525 21.8686 28.3939 21.8385C28.3354 21.8084 28.29 21.758 28.2661 21.6967C25.6386 14.7176 24.8782 8.93047 26.2642 6.59448C26.4629 6.25447 26.7426 5.96868 27.0784 5.76243C27.4142 5.55618 27.7957 5.43584 28.1891 5.41207C28.3229 5.39192 28.4581 5.38228 28.5934 5.38323Z" fill="white"/>
<path d="M34.8976 67.2437H47.198C55.6391 67.2437 62.482 74.0762 62.482 82.5045C62.482 90.9328 55.6391 97.7653 47.198 97.7653H34.8976C26.4565 97.7653 19.6136 90.9328 19.6136 82.5045C19.6136 74.0762 26.4565 67.2437 34.8976 67.2437Z" fill="#F4F4F4"/>
<path d="M90.3936 69.522C90.3936 69.522 96.6882 79.1351 91.7988 83.8167C86.9095 88.4982 82.1741 77.9238 82.1741 77.9238L78.7285 71.9349L84.6862 61.3604C86.7451 63.9684 88.6507 66.6935 90.3936 69.522Z" fill="white"/>
<path d="M36.8034 93.901C36.93 93.9017 37.0556 93.8774 37.1729 93.8296C37.2901 93.7817 37.3968 93.7113 37.4867 93.6222L41.7697 89.2963C41.9274 89.1124 42.0098 88.8758 42.0004 88.6339C41.9911 88.3919 41.8907 88.1624 41.7193 87.9912C41.5479 87.82 41.3181 87.7197 41.0758 87.7104C40.8336 87.701 40.5968 87.7833 40.4126 87.9408L36.12 92.2187C36.0298 92.308 35.9582 92.4143 35.9093 92.5315C35.8605 92.6486 35.8353 92.7743 35.8353 92.9012C35.8353 93.0281 35.8605 93.1537 35.9093 93.2709C35.9582 93.388 36.0298 93.4943 36.12 93.5837C36.2067 93.6798 36.3119 93.7574 36.4293 93.8119C36.5467 93.8664 36.674 93.8967 36.8034 93.901Z" fill="#FFD2D2"/>
<path d="M41.1056 93.9008C41.2322 93.9015 41.3578 93.8773 41.4751 93.8294C41.5923 93.7816 41.699 93.7111 41.7889 93.622C41.8791 93.5327 41.9507 93.4264 41.9996 93.3092C42.0485 93.1921 42.0736 93.0664 42.0736 92.9395C42.0736 92.8126 42.0485 92.6869 41.9996 92.5698C41.9507 92.4527 41.8791 92.3463 41.7889 92.257L37.5059 87.9791C37.4165 87.889 37.31 87.8175 37.1927 87.7687C37.0754 87.7199 36.9496 87.6948 36.8226 87.6948C36.6955 87.6948 36.5697 87.7199 36.4524 87.7687C36.3351 87.8175 36.2287 87.889 36.1392 87.9791C35.9599 88.1592 35.8593 88.4029 35.8593 88.6568C35.8593 88.9108 35.9599 89.1545 36.1392 89.3346L40.4318 93.622C40.6111 93.7996 40.8531 93.8998 41.1056 93.9008Z" fill="#FFD2D2"/>
<path d="M39.373 51.3724L44.2624 48.9211C44.3755 48.8637 44.4762 48.7845 44.5587 48.6882C44.6412 48.5919 44.7039 48.4803 44.7432 48.3598C44.8226 48.1164 44.802 47.8515 44.6858 47.6233C44.5697 47.3951 44.3676 47.2224 44.1239 47.143C43.8802 47.0637 43.615 47.0843 43.3865 47.2003L39.3634 49.2479L34.9745 47.0658C34.7448 46.9523 34.4793 46.9347 34.2366 47.0167C33.9938 47.0987 33.7936 47.2737 33.68 47.5032C33.5664 47.7326 33.5487 47.9978 33.6309 48.2402C33.713 48.4827 33.8882 48.6827 34.1179 48.7961L39.373 51.3724Z" fill="#FFD2D2"/>
<path d="M42.2316 56.9771C43.2235 56.9986 44.1889 56.6566 44.9457 56.0158C45.1397 55.8501 45.2599 55.6142 45.2797 55.36C45.2996 55.1058 45.2176 54.8542 45.0516 54.6604C44.8857 54.4666 44.6495 54.3466 44.395 54.3268C44.1405 54.307 43.8885 54.3889 43.6945 54.5546C43.2814 54.8858 42.7606 55.0535 42.2316 55.0257C41.9824 55.0554 41.7296 55.0304 41.491 54.9524C41.2525 54.8744 41.0339 54.7453 40.8505 54.574C40.6672 54.4028 40.5235 54.1936 40.4296 53.9611C40.3356 53.7286 40.2937 53.4784 40.3067 53.228V50.2672C40.3067 50.0122 40.2053 49.7677 40.0248 49.5875C39.8443 49.4072 39.5995 49.3059 39.3442 49.3059C39.0889 49.3059 38.8441 49.4072 38.6636 49.5875C38.4831 49.7677 38.3817 50.0122 38.3817 50.2672V53.2376C38.399 53.87 38.5568 54.4906 38.8437 55.0545C39.1613 55.6683 39.6505 56.1768 40.2519 56.5181C40.8534 56.8594 41.5411 57.0189 42.2316 56.9771Z" fill="#FFD2D2"/>
<path d="M36.2933 56.9768C36.8029 57.0026 37.3126 56.927 37.7926 56.7544C38.2727 56.5817 38.7136 56.3154 39.0898 55.971C39.4659 55.6267 39.7698 55.211 39.9837 54.7483C40.1976 54.2856 40.3172 53.7851 40.3357 53.2758C40.3357 53.0208 40.2343 52.7763 40.0538 52.596C39.8733 52.4157 39.6285 52.3145 39.3732 52.3145C39.118 52.3145 38.8731 52.4157 38.6926 52.596C38.5121 52.7763 38.4108 53.0208 38.4108 53.2758C38.4079 53.5396 38.3487 53.7999 38.2371 54.0391C38.1255 54.2783 37.9641 54.4909 37.7637 54.6629C37.5633 54.8349 37.3285 54.9621 37.075 55.0362C36.8214 55.1103 36.5549 55.1296 36.2933 55.0927C35.7648 55.1288 35.2422 54.964 34.8304 54.6312C34.7362 54.5466 34.6263 54.4814 34.5069 54.4393C34.3875 54.3971 34.2609 54.3789 34.1345 54.3855C34.008 54.3922 33.8841 54.4238 33.7698 54.4783C33.6556 54.5328 33.5531 54.6093 33.4685 54.7033C33.3838 54.7974 33.3185 54.9072 33.2763 55.0264C33.2341 55.1457 33.2158 55.2721 33.2225 55.3984C33.2292 55.5247 33.2608 55.6484 33.3153 55.7626C33.3699 55.8767 33.4465 55.979 33.5407 56.0636C34.3093 56.7051 35.2931 57.0315 36.2933 56.9768Z" fill="#FFD2D2"/>
</g>
<defs>
<clipPath id="clip0_353_1452">
<rect width="92.8398" height="101.505" fill="white" transform="matrix(-1 0 0 1 93.6566 0)"/>
</clipPath>
</defs>
</svg>
